<svg width="48" height="48" viewBox="0 0 48 48" fill="none" xmlns="http://www.w3.org/2000/svg">
<rect x="1" y="1" width="46" height="46" rx="23" stroke="#183B56" stroke-width="2"/>
<path d="M23.5703 19.582C23.2969 19.8555 23.3242 20.2656 23.5703 20.5391L26.8789 23.6562H19.0312C18.6484 23.6562 18.375 23.957 18.375 24.3125V25.1875C18.375 25.5703 18.6484 25.8438 19.0312 25.8438H26.8789L23.5703 28.9883C23.3242 29.2617 23.3242 29.6719 23.5703 29.9453L24.1719 30.5469C24.4453 30.793 24.8555 30.793 25.1016 30.5469L30.4336 25.2148C30.6797 24.9688 30.6797 24.5586 30.4336 24.2852L25.1016 18.9805C24.8555 18.7344 24.4453 18.7344 24.1719 18.9805L23.5703 19.582Z" fill="#183B56"/>
</svg>
