<svg width="48" height="48" viewBox="0 0 48 48" fill="none" xmlns="http://www.w3.org/2000/svg">
<rect x="1" y="1" width="46" height="46" rx="23" stroke="#959EAD" stroke-width="2"/>
<path d="M25.4023 29.9453C25.6758 29.6719 25.6484 29.2617 25.4023 28.9883L22.0938 25.8438H29.9688C30.3242 25.8438 30.625 25.5703 30.625 25.1875V24.3125C30.625 23.957 30.3242 23.6562 29.9688 23.6562H22.0938L25.4023 20.5391C25.6484 20.2656 25.6758 19.8555 25.4023 19.582L24.8008 18.9805C24.5547 18.7344 24.1172 18.7344 23.8711 18.9805L18.5664 24.3125C18.293 24.5586 18.293 24.9688 18.5664 25.2148L23.8711 30.5469C24.1172 30.793 24.5273 30.793 24.8008 30.5469L25.4023 29.9453Z" fill="#959EAD"/>
</svg>
